<?xml version="1.0" encoding="UTF-8"?>
<svg version="1.1" xmlns="http://www.w3.org/2000/svg" width="48" height="48">
<path d="M0 0 C1.75 0.0625 1.75 0.0625 4 1 C8.49999852 6.37499824 8.7240061 11.66583673 8.51171875 18.546875 C7.4982851 25.38561811 4.10669737 29.23725322 -1.0625 33.5625 C-6.22409868 36.14329934 -12.40165344 35.30306838 -18 35 C-18 33.68 -18 32.36 -18 31 C-17.28714844 30.97421875 -16.57429688 30.9484375 -15.83984375 30.921875 C-9.46622792 30.54443342 -5.10881152 29.93804222 0 26 C3.16282718 21.71487931 3.49977651 17.64697533 3.375 12.46875 C2.7998593 8.68240708 1.03265283 6.21290285 -1 3 C-0.67 2.01 -0.34 1.02 0 0 Z " fill="#000000" transform="translate(36,9)"/>
<path d="M0 0 C0 0.99 0 1.98 0 3 C-0.99580078 3.23783203 -0.99580078 3.23783203 -2.01171875 3.48046875 C-8.40777111 5.17052054 -12.56143174 6.93858173 -16.109375 12.84765625 C-17.15379456 15.37167018 -17.26661456 17.27521215 -17.25 20 C-17.25515625 20.845625 -17.2603125 21.69125 -17.265625 22.5625 C-16.98405543 25.14631486 -16.19635216 26.72401297 -15 29 C-15.375 31.25 -15.375 31.25 -16 33 C-18.30241846 32.07903262 -19.71249538 31.43329597 -21.1015625 29.33984375 C-23.35029233 23.4833691 -23.19462793 16.02270626 -20.90234375 10.22265625 C-15.72226944 1.92072383 -9.65613895 -0.78825624 0 0 Z " fill="#000000" transform="translate(26,4)"/>
<path d="M0 0 C-0.33 1.65 -0.66 3.3 -1 5 C2.3 5.33 5.6 5.66 9 6 C9 7.32 9 8.64 9 10 C5.7 10.33 2.4 10.66 -1 11 C-0.67 12.65 -0.34 14.3 0 16 C-3.09084737 15.65657251 -4.32444569 14.74044345 -6.8125 12.75 C-9 10 -9 10 -9.125 7.5 C-7.21260253 3.25022785 -4.84390855 0 0 0 Z " fill="#000000" transform="translate(24,16)"/>
</svg>
